<svg width="16" height="16" viewBox="0 0 16 16" fill="none" xmlns="http://www.w3.org/2000/svg">
<rect width="16" height="16" rx="4" fill="white"/>
<path d="M4.21267 14H2.5V10H4.21041C4.6825 10 5.08899 10.0801 5.42986 10.2402C5.77225 10.3991 6.0362 10.6283 6.22172 10.9277C6.40724 11.2259 6.5 11.5827 6.5 11.998C6.5 12.4147 6.40724 12.7728 6.22172 13.0723C6.03771 13.3717 5.77451 13.6016 5.43213 13.7617C5.08974 13.9206 4.68326 14 4.21267 14ZM3.61991 13.1758H4.16968C4.42911 13.1758 4.64857 13.138 4.82805 13.0625C5.00905 12.9857 5.14555 12.8613 5.23756 12.6895C5.33107 12.5163 5.37783 12.2858 5.37783 11.998C5.37783 11.7103 5.33107 11.4811 5.23756 11.3105C5.14404 11.1387 5.00603 11.015 4.82353 10.9395C4.64253 10.8626 4.41931 10.8242 4.15385 10.8242H3.61991V13.1758Z" fill="#2E333C"/>
<path d="M7.54263 14H6.5L7.85424 10H9.14576L10.5 14H9.45737L8.5147 11.0078H8.48334L7.54263 14ZM7.40348 12.4258H9.5828V13.1602H7.40348V12.4258Z" fill="#2E333C"/>
<path d="M14.5 12C14.5 12.4284 14.4113 12.7915 14.234 13.0894C14.0567 13.3872 13.8166 13.6134 13.5138 13.7681C13.2124 13.9227 12.8741 14 12.499 14C12.1225 14 11.7835 13.9221 11.4821 13.7662C11.1806 13.6103 10.9413 13.384 10.7639 13.0875C10.588 12.7896 10.5 12.4271 10.5 12C10.5 11.5716 10.588 11.2085 10.7639 10.9106C10.9413 10.6128 11.1806 10.3866 11.4821 10.2319C11.7835 10.0773 12.1225 10 12.499 10C12.8741 10 13.2124 10.0773 13.5138 10.2319C13.8166 10.3866 14.0567 10.6128 14.234 10.9106C14.4113 11.2085 14.5 11.5716 14.5 12ZM13.4647 12C13.4647 11.7465 13.4258 11.5323 13.3481 11.3574C13.2717 11.1825 13.1612 11.0501 13.0166 10.9601C12.8734 10.8701 12.7009 10.8251 12.499 10.8251C12.2985 10.8251 12.1259 10.8701 11.9813 10.9601C11.8367 11.0501 11.7256 11.1825 11.6478 11.3574C11.5714 11.5323 11.5332 11.7465 11.5332 12C11.5332 12.2535 11.5714 12.4677 11.6478 12.6426C11.7256 12.8175 11.8367 12.9499 11.9813 13.0399C12.1259 13.1299 12.2985 13.1749 12.499 13.1749C12.7009 13.1749 12.8734 13.1299 13.0166 13.0399C13.1612 12.9499 13.2717 12.8175 13.3481 12.6426C13.4258 12.4677 13.4647 12.2535 13.4647 12Z" fill="#2E333C"/>
<path fill-rule="evenodd" clip-rule="evenodd" d="M5.37189 5.00026C5.37189 5.89829 6.09892 6.62628 6.99576 6.62628C7.8926 6.62628 8.61963 5.89829 8.61963 5.00026C8.61963 4.10222 7.8926 3.37423 6.99576 3.37423C6.09892 3.37423 5.37189 4.10222 5.37189 5.00026ZM6.99576 5.96466C6.46384 5.96466 6.03264 5.53288 6.03264 5.00026C6.03264 4.46763 6.46384 4.03585 6.99576 4.03585C7.52768 4.03585 7.95888 4.46763 7.95888 5.00026C7.95888 5.53288 7.52768 5.96466 6.99576 5.96466Z" fill="url(#paint0_linear_946_53)"/>
<path fill-rule="evenodd" clip-rule="evenodd" d="M11.412 7.29912H8.91979C9.02317 7.2123 9.1206 7.11862 9.2114 7.01877H11.5334L12 6.3179H9.68753C9.88223 5.91998 9.99152 5.47257 9.99152 4.99974C9.99152 3.34303 8.65028 2 6.99576 2C5.34125 2 4 3.34303 4 4.99974C4 6.65644 5.34124 8 6.99576 8H10.9454L11.412 7.29912ZM6.99576 7.29861C5.72782 7.29861 4.69994 6.26937 4.69994 4.99974C4.69994 3.73011 5.72782 2.70087 6.99576 2.70087C8.26371 2.70087 9.29158 3.73011 9.29158 4.99974C9.29158 6.26937 8.26371 7.29861 6.99576 7.29861Z" fill="url(#paint1_linear_946_53)"/>
<defs>
<linearGradient id="paint0_linear_946_53" x1="4" y1="2" x2="9.76" y2="9.68" gradientUnits="userSpaceOnUse">
<stop stop-color="#0083C7"/>
<stop offset="1" stop-color="#00AA5B"/>
</linearGradient>
<linearGradient id="paint1_linear_946_53" x1="4" y1="2" x2="9.76" y2="9.68" gradientUnits="userSpaceOnUse">
<stop stop-color="#0083C7"/>
<stop offset="1" stop-color="#00AA5B"/>
</linearGradient>
</defs>
</svg>
