<svg width="476" height="207" viewBox="0 0 476 207" fill="none" xmlns="http://www.w3.org/2000/svg">
<path d="M67 1L78.6747 37.2766H116.455L85.8901 59.6968L97.5648 95.9734L67 73.5532L36.4352 95.9734L48.1099 59.6968L17.5451 37.2766H55.3253L67 1Z" fill="#103D7C"/>
<path d="M295 1L306.675 37.2766H344.455L313.89 59.6968L325.565 95.9734L295 73.5532L264.435 95.9734L276.11 59.6968L245.545 37.2766H283.325L295 1Z" fill="#103D7C"/>
<path d="M67 116L78.6747 152.277H116.455L85.8901 174.697L97.5648 210.973L67 188.553L36.4352 210.973L48.1099 174.697L17.5451 152.277H55.3253L67 116Z" fill="#103D7C"/>
<path d="M295 116L306.675 152.277H344.455L313.89 174.697L325.565 210.973L295 188.553L264.435 210.973L276.11 174.697L245.545 152.277H283.325L295 116Z" fill="#103D7C"/>
<path d="M181 1L192.675 37.2766H230.455L199.89 59.6968L211.565 95.9734L181 73.5532L150.435 95.9734L162.11 59.6968L131.545 37.2766H169.325L181 1Z" fill="#103D7C"/>
<path d="M409 1L420.675 37.2766H458.455L427.89 59.6968L439.565 95.9734L409 73.5532L378.435 95.9734L390.11 59.6968L359.545 37.2766H397.325L409 1Z" fill="#103D7C"/>
<path d="M181 116L192.675 152.277H230.455L199.89 174.697L211.565 210.973L181 188.553L150.435 210.973L162.11 174.697L131.545 152.277H169.325L181 116Z" fill="#103D7C"/>
<path d="M409 116L420.675 152.277H458.455L427.89 174.697L439.565 210.973L409 188.553L378.435 210.973L390.11 174.697L359.545 152.277H397.325L409 116Z" fill="#103D7C"/>
<rect y="92.7151" width="563" height="175" rx="17" transform="rotate(-15 0 92.7151)" fill="url(#paint0_linear)"/>
<path d="M180.476 78.5208C180.047 76.9204 180.997 75.2754 182.597 74.8466L316.403 38.9933C318.004 38.5645 319.649 39.5143 320.077 41.1147L327.948 70.489C328.377 72.0894 327.427 73.7344 325.827 74.1632L192.021 110.016C190.42 110.445 188.775 109.496 188.346 107.895L180.476 78.5208Z" fill="#F7CF00"/>
<path d="M204.981 85.0456L207.398 84.3978C206.057 81.4962 202.892 80.0882 199.522 80.9914C195.48 82.0743 193.344 85.9077 194.68 90.895C196.005 95.8364 199.695 98.1413 203.928 97.0073C207.718 95.9918 209.759 92.7804 208.702 88.8379L208.226 87.0611L202.087 88.706L202.608 90.6505L206.467 89.6166C207.088 92.1474 205.853 94.1866 203.351 94.8568C200.598 95.5945 198.035 94.05 197.018 90.2524C196.004 86.4701 197.467 83.8468 200.113 83.1377C202.187 82.582 203.897 83.3498 204.981 85.0456ZM224.832 82.8076C223.494 77.8127 219.694 75.5863 215.652 76.6693C211.595 77.7563 209.425 81.5826 210.763 86.5775C212.099 91.5647 215.894 93.8008 219.951 92.7138C223.993 91.6308 226.171 87.8024 224.832 82.8076ZM222.499 83.4328C223.519 87.2381 222.059 89.8441 219.375 90.5633C216.683 91.2846 214.124 89.7554 213.104 85.9502C212.085 82.145 213.536 79.541 216.228 78.8197C218.912 78.1005 221.479 79.6276 222.499 83.4328ZM229.863 89.8292L239.296 87.3016L238.752 85.2731L231.675 87.1693L228.034 73.5803L225.678 74.2117L229.863 89.8292ZM247.04 85.2266C251.798 83.9516 253.76 80.2628 252.452 75.3823C251.151 70.5247 247.613 68.3341 243.015 69.5662L237.799 70.9638L241.984 86.5813L247.04 85.2266ZM243.788 83.891L240.707 72.3914L243.422 71.664C246.838 70.7486 249.147 72.3203 250.134 76.0035C251.125 79.702 249.919 82.2482 246.358 83.2024L243.788 83.891ZM263.164 80.906L265.521 80.2747L264.049 74.7841L267.252 73.9259C270.874 72.9554 272.08 70.2866 271.308 67.4041C270.537 64.5292 268.176 62.8243 264.546 63.7969L258.98 65.2885L263.164 80.906ZM263.514 72.7862L261.877 66.678L264.836 65.8852C267.17 65.2599 268.462 66.2704 268.936 68.0395C269.41 69.8087 268.806 71.3681 266.503 71.9852L263.514 72.7862ZM276.9 77.2255L286.333 74.698L285.79 72.6695L278.713 74.5657L275.072 60.9766L272.715 61.608L276.9 77.2255ZM294.88 55.6692L297.581 65.7504C298.149 67.8703 297.093 69.7878 294.714 70.4253C292.343 71.0608 290.462 69.93 289.894 67.81L287.193 57.7288L284.836 58.3602L287.589 68.632C288.467 71.9111 291.546 73.579 295.29 72.5758C299.035 71.5725 300.874 68.5866 299.996 65.3076L297.244 55.0357L294.88 55.6692ZM310.287 55.938L312.559 55.3291C311.82 52.8463 309.122 51.6239 305.95 52.4739C302.816 53.3137 300.894 55.7494 301.615 58.4413C302.198 60.6146 304.095 61.4713 306.785 61.4777L308.766 61.4866C310.554 61.4814 311.99 61.6851 312.362 63.073C312.771 64.5981 311.584 65.995 309.578 66.5324C307.763 67.0187 306.037 66.6149 305.444 64.9512L303.08 65.5846C303.99 68.3729 306.647 69.5328 310.147 68.5949C313.815 67.612 315.411 65.1167 314.701 62.4706C313.948 59.6567 311.146 59.2385 309.033 59.2817L307.402 59.2938C306.098 59.3081 304.32 59.1714 303.927 57.6747C303.572 56.3478 304.521 55.0392 306.442 54.5243C308.234 54.0441 309.733 54.5417 310.287 55.938Z" fill="white"/>
<circle cx="112.676" cy="157.769" r="62" transform="rotate(-15 112.676 157.769)" fill="#E6E8EF"/>
<ellipse cx="107.63" cy="138.933" rx="16" ry="16.5" transform="rotate(-15 107.63 138.933)" fill="#0083C7"/>
<path d="M140.148 183.019C145.483 181.59 148.767 175.954 145.696 171.364C145.33 170.817 144.946 170.281 144.544 169.758C142.106 166.58 139.066 163.914 135.597 161.911C132.128 159.909 128.299 158.609 124.328 158.086C120.357 157.563 116.322 157.828 112.453 158.864C108.584 159.901 104.957 161.689 101.78 164.128C98.602 166.566 95.9358 169.606 93.9331 173.075C91.9305 176.544 90.6306 180.373 90.1078 184.344C90.0217 184.998 89.9569 185.654 89.9135 186.311C89.5488 191.822 95.2108 195.06 100.545 193.631L120.347 188.325L140.148 183.019Z" fill="#0083C7"/>
<rect x="194.969" y="132.613" width="208" height="12" rx="6" transform="rotate(-15 194.969 132.613)" fill="#E6E8EF"/>
<rect x="200.404" y="152.897" width="208" height="12" rx="6" transform="rotate(-15 200.404 152.897)" fill="#E6E8EF"/>
<rect x="205.84" y="173.182" width="129" height="12" rx="6" transform="rotate(-15 205.84 173.182)" fill="#E6E8EF"/>
<defs>
<linearGradient id="paint0_linear" x1="244.403" y1="92.7151" x2="243.592" y2="218.612" gradientUnits="userSpaceOnUse">
<stop stop-color="white"/>
<stop offset="1" stop-color="#F1F3F8"/>
</linearGradient>
</defs>
</svg>
