<svg width="530" height="285" viewBox="0 0 530 285" fill="none" xmlns="http://www.w3.org/2000/svg">
<g clip-path="url(#clip0)">
<rect y="104.452" width="523.963" height="205.449" rx="15" transform="rotate(-15 0 104.452)" fill="white"/>
<path d="M26.0194 122.703L31.8513 128.222L33.0924 132.854L34.4535 132.49L33.2124 127.858L35.5031 120.162L33.9444 120.579L32.233 126.661L32.1013 126.697L27.5781 122.285L26.0194 122.703ZM42.4887 130.525C44.201 130.066 45.2229 128.875 45.2769 127.496L43.9315 127.48C43.8374 128.446 43.1922 129.089 42.1769 129.361C40.6567 129.769 39.3452 129.067 38.801 127.278L44.9204 125.638L44.7733 125.089C43.9322 121.95 41.7779 121.374 40.0217 121.845C37.7386 122.457 36.7062 124.663 37.4003 127.253C38.0944 129.844 40.0519 131.178 42.4887 130.525ZM38.501 126.158C38.2374 124.823 38.8516 123.406 40.3335 123.008C41.7384 122.632 42.9209 123.445 43.3032 124.872L38.501 126.158ZM52.1207 120.744C51.3939 119.657 50.2682 119.099 48.5998 119.547C46.8216 120.023 45.775 121.386 46.1574 122.813C46.4691 123.976 47.3695 124.57 49.0142 124.518L50.5074 124.471C51.411 124.44 51.9205 124.739 52.0764 125.321C52.2705 126.045 51.6609 126.844 50.4535 127.167C49.3943 127.451 48.6082 127.174 48.135 126.33L46.988 126.966C47.6737 128.318 49.0581 128.765 50.7814 128.303C52.7407 127.778 53.7875 126.35 53.3978 124.896C53.0831 123.722 52.1492 123.178 50.5469 123.213L49.2132 123.241C48.1482 123.262 47.6085 123.047 47.4349 122.4C47.2408 121.675 47.868 120.943 48.8998 120.666C50.0303 120.363 50.6645 120.864 51.0454 121.385L52.1207 120.744Z" fill="#353C47"/>
<path d="M469.28 15.4607L470.831 15.0451L472.827 5.37953L472.475 4.06373L465.973 5.80598L466.314 7.07856L471.279 5.74807L471.298 5.8201L469.28 15.4607ZM479.93 12.7512C481.909 12.221 482.946 10.4453 482.428 8.53049C481.923 6.62754 480.227 5.59965 478.436 6.07961C477.706 6.27519 477.104 6.73515 476.82 7.21266L476.762 7.2281L476.337 4.39281L480.51 3.27463L480.169 2.00205L474.762 3.45092L475.538 8.55475L476.951 8.3923C477.232 7.96187 477.834 7.55859 478.429 7.39904C479.599 7.09596 480.678 7.74349 481 8.94404C481.316 10.1254 480.724 11.2002 479.596 11.5026C478.645 11.7574 477.729 11.3543 477.426 10.5297L475.985 10.9157C476.462 12.4658 478.125 13.235 479.93 12.7512ZM489.673 8.01999C489.975 9.12801 490.923 9.87786 492.224 9.52915C493.511 9.1843 493.966 8.05873 493.669 6.94942L493.53 6.43078C493.231 5.31668 492.295 4.56906 490.989 4.91905C489.706 5.26261 489.242 6.39076 489.534 7.50135L489.673 8.01999ZM483.219 3.71717C483.516 4.82648 484.468 5.57504 485.77 5.22633C487.052 4.88277 487.513 3.76071 487.21 2.64789L487.071 2.12925C486.777 1.01386 485.836 0.267524 484.534 0.616231C483.257 0.958505 482.781 2.08443 483.08 3.19853L483.219 3.71717ZM485.624 11.0813L486.772 10.7738L490.898 -0.872857L489.751 -0.565325L485.624 11.0813ZM490.653 7.20154C490.51 6.64801 490.607 6.05063 491.246 5.87949C491.909 5.70192 492.258 6.17963 492.406 6.73188L492.545 7.25052C492.693 7.80277 492.61 8.39629 491.967 8.56871C491.313 8.74371 490.944 8.26634 490.792 7.72018L490.653 7.20154ZM484.204 2.89744C484.057 2.34999 484.153 1.74781 484.792 1.57667C485.454 1.3991 485.804 1.87681 485.952 2.42906L486.091 2.9477C486.239 3.49995 486.156 4.09347 485.512 4.26589C484.859 4.44089 484.491 3.96833 484.343 3.41607L484.204 2.89744Z" fill="#7C838D"/>
<rect x="31.7418" y="145.64" width="484" height="10" rx="4" transform="rotate(-15 31.7418 145.64)" fill="#E9EDF2"/>
<rect x="31.7418" y="145.64" width="354.632" height="10" rx="4" transform="rotate(-15 31.7418 145.64)" fill="#00AA5B"/>
<rect x="36.1418" y="162.06" width="120" height="6" rx="3" transform="rotate(-15 36.1418 162.06)" fill="#E9EDF2"/>
<path d="M59.192 206.989L57.8528 207.348L60.2234 216.195L60.1136 216.224L51.5963 209.024L50.2791 209.377L53.2908 220.617L54.6519 220.253L52.2872 211.427L52.397 211.398L60.8865 218.582L62.2037 218.229L59.192 206.989ZM68.2233 216.804C70.5064 216.193 71.5784 214.047 70.8784 211.434C70.1725 208.8 68.1711 207.477 65.888 208.089C63.6049 208.701 62.5329 210.847 63.2388 213.481C63.9388 216.094 65.9402 217.416 68.2233 216.804ZM67.9115 215.641C66.1772 216.105 64.9869 214.824 64.534 213.134C64.0811 211.444 64.4655 209.717 66.1998 209.253C67.9341 208.788 69.1302 210.091 69.5832 211.781C70.0361 213.472 69.6458 215.176 67.9115 215.641Z" fill="#353C47"/>
<path d="M492.243 102.483L498.716 100.748L498.375 99.4757L493.947 100.662L493.928 100.59L495.334 98.0207C496.648 95.7181 496.928 94.7112 496.634 93.6115C496.21 92.0316 494.599 91.1663 492.746 91.663C490.906 92.1558 489.881 93.707 490.362 95.503L491.779 95.1235C491.491 94.0683 491.987 93.194 493.049 92.9097C494.048 92.642 494.971 93.0534 495.234 94.033C495.466 94.9022 495.115 95.6655 494.358 97.0675L491.954 101.407L492.243 102.483ZM503.818 99.5253C505.797 98.9951 506.834 97.2194 506.316 95.3046C505.811 93.4017 504.115 92.3738 502.324 92.8537C501.594 93.0493 500.992 93.5093 500.708 93.9868L500.65 94.0022L500.225 91.1669L504.398 90.0487L504.057 88.7762L498.65 90.225L499.426 95.3289L500.839 95.1664C501.12 94.736 501.722 94.3327 502.317 94.1732C503.487 93.8701 504.566 94.5176 504.888 95.7182C505.204 96.8995 504.612 97.9743 503.484 98.2767C502.533 98.5315 501.617 98.1284 501.314 97.3038L499.873 97.6898C500.35 99.2399 502.013 100.009 503.818 99.5253ZM513.561 94.7941C513.863 95.9021 514.81 96.652 516.112 96.3033C517.399 95.9584 517.854 94.8328 517.557 93.7235L517.418 93.2049C517.119 92.0908 516.183 91.3432 514.877 91.6932C513.594 92.0367 513.13 93.1649 513.422 94.2755L513.561 94.7941ZM507.107 90.4913C507.404 91.6006 508.356 92.3492 509.658 92.0004C510.94 91.6569 511.401 90.5348 511.098 89.422L510.959 88.9034C510.665 87.788 509.724 87.0416 508.422 87.3903C507.145 87.7326 506.669 88.8585 506.968 89.9726L507.107 90.4913ZM509.512 97.8554L510.66 97.5479L514.786 85.9013L513.639 86.2088L509.512 97.8554ZM514.541 93.9757C514.398 93.4221 514.495 92.8247 515.134 92.6536C515.797 92.476 516.146 92.9537 516.294 93.506L516.433 94.0246C516.581 94.5769 516.498 95.1704 515.855 95.3428C515.201 95.5178 514.832 95.0405 514.68 94.4943L514.541 93.9757ZM508.092 89.6716C507.945 89.1241 508.041 88.5219 508.68 88.3508C509.342 88.1732 509.692 88.6509 509.84 89.2032L509.979 89.7218C510.127 90.2741 510.044 90.8676 509.4 91.04C508.747 91.215 508.379 90.7424 508.231 90.1902L508.092 89.6716Z" fill="#7C838D"/>
<rect x="55.0356" y="232.573" width="484" height="10" rx="4" transform="rotate(-15 55.0356 232.573)" fill="#E9EDF2"/>
<rect x="55.0356" y="232.573" width="91.372" height="10" rx="4" transform="rotate(-15 55.0356 232.573)" fill="#DF3333"/>
<rect x="59.4355" y="248.994" width="120" height="6" rx="3" transform="rotate(-15 59.4355 248.994)" fill="#E9EDF2"/>
</g>
<defs>
<clipPath id="clip0">
<rect y="104.452" width="523.963" height="205.449" rx="15" transform="rotate(-15 0 104.452)" fill="white"/>
</clipPath>
</defs>
</svg>
