<svg width="92" height="91" viewBox="0 0 92 91" fill="none" xmlns="http://www.w3.org/2000/svg">
<rect x="0.5" width="91" height="91" rx="45.5" fill="url(#paint0_linear)"/>
<path d="M73.0259 68.2442H18.9713C17.9293 68.2442 16.9664 67.6882 16.4454 66.7858C15.9244 65.8834 15.9244 64.7716 16.4454 63.8692L43.4713 17.2025C43.9927 16.3016 44.9547 15.7468 45.9957 15.7468C47.0366 15.7468 47.9986 16.3016 48.52 17.2025L75.5459 63.8692C76.0666 64.7711 76.0669 65.8823 75.5466 66.7845C75.0263 67.6868 74.0644 68.2431 73.0229 68.2442H73.0259ZM43.0834 53.6608V59.4942H45.8046H45.9942H46.1838H48.9109V53.6608H43.0834ZM43.0834 33.2442V47.8275H48.9167V33.2442H43.0834Z" fill="white"/>
<defs>
<linearGradient id="paint0_linear" x1="0.5" y1="0" x2="91.5" y2="91" gradientUnits="userSpaceOnUse">
<stop stop-color="#0083C7"/>
<stop offset="1" stop-color="#00AA5B"/>
</linearGradient>
</defs>
</svg>
